<mxfile host="app.diagrams.net" agent="Mozilla/5.0 (Windows NT 10.0; Win64; x64) AppleWebKit/537.36 (KHTML, like Gecko) Chrome/137.0.0.0 Safari/537.36 Edg/137.0.0.0" version="27.1.4">
  <diagram id="yPxyJZ8AM_hMuL3Unpa9" name="complex gitflow">
    <mxGraphModel dx="3147" dy="2550" grid="1" gridSize="10" guides="1" tooltips="1" connect="1" arrows="1" fold="1" page="1" pageScale="1" pageWidth="1100" pageHeight="850" math="0" shadow="0">
      <root>
        <mxCell id="0" />
        <mxCell id="1" parent="0" />
        <mxCell id="Qrs4UdfkYSaOgJ5aVB63-132" value="" style="edgeStyle=orthogonalEdgeStyle;rounded=0;html=1;jettySize=auto;orthogonalLoop=1;strokeWidth=4;endArrow=none;endFill=0;dashed=1;strokeColor=#808080;fontSize=20;" edge="1" parent="1">
          <mxGeometry x="192.25" y="211" as="geometry">
            <mxPoint x="1211.0000000000002" y="-87.70212765957444" as="sourcePoint" />
            <mxPoint x="1631" y="-87.94999999999999" as="targetPoint" />
          </mxGeometry>
        </mxCell>
        <mxCell id="Qrs4UdfkYSaOgJ5aVB63-171" style="edgeStyle=orthogonalEdgeStyle;curved=1;rounded=0;html=1;exitX=1;exitY=0.5;exitPerimeter=0;entryX=0;entryY=0.5;entryPerimeter=0;endArrow=none;endFill=0;jettySize=auto;orthogonalLoop=1;strokeWidth=4;fontSize=20;entryDx=0;entryDy=0;exitDx=0;exitDy=0;" edge="1" parent="1" source="Qrs4UdfkYSaOgJ5aVB63-173" target="Qrs4UdfkYSaOgJ5aVB63-70">
          <mxGeometry relative="1" as="geometry">
            <mxPoint x="1243.99" y="-44.5" as="sourcePoint" />
            <mxPoint x="1251.5" y="13" as="targetPoint" />
            <Array as="points">
              <mxPoint x="1236" y="-88" />
              <mxPoint x="1236" y="12" />
            </Array>
          </mxGeometry>
        </mxCell>
        <mxCell id="Qrs4UdfkYSaOgJ5aVB63-172" style="edgeStyle=orthogonalEdgeStyle;curved=1;rounded=0;html=1;exitX=0;exitY=0.5;exitPerimeter=0;endArrow=none;endFill=0;jettySize=auto;orthogonalLoop=1;strokeWidth=4;fontSize=20;exitDx=0;exitDy=0;entryX=1;entryY=0.5;entryDx=0;entryDy=0;entryPerimeter=0;" edge="1" parent="1" source="Qrs4UdfkYSaOgJ5aVB63-173" target="Qrs4UdfkYSaOgJ5aVB63-154">
          <mxGeometry relative="1" as="geometry">
            <mxPoint x="1229.5" y="-64.5" as="sourcePoint" />
            <mxPoint x="1166.5" y="12" as="targetPoint" />
            <Array as="points">
              <mxPoint x="1182" y="-88" />
              <mxPoint x="1182" y="12" />
              <mxPoint x="1169" y="12" />
            </Array>
          </mxGeometry>
        </mxCell>
        <mxCell id="Qrs4UdfkYSaOgJ5aVB63-173" value="" style="verticalLabelPosition=bottom;verticalAlign=top;html=1;strokeWidth=4;shape=mxgraph.flowchart.on-page_reference;plain-purple;strokeColor=#000000;fillColor=#f8cecc;gradientColor=none;fontSize=20;" vertex="1" parent="1">
          <mxGeometry x="1193.5" y="-102.75" width="30" height="30" as="geometry" />
        </mxCell>
        <mxCell id="Qrs4UdfkYSaOgJ5aVB63-151" value="" style="edgeStyle=orthogonalEdgeStyle;rounded=0;html=1;jettySize=auto;orthogonalLoop=1;strokeWidth=4;endArrow=none;endFill=0;dashed=1;strokeColor=#808080;fontSize=20;" edge="1" parent="1" source="Qrs4UdfkYSaOgJ5aVB63-68">
          <mxGeometry x="192.25" y="211" as="geometry">
            <mxPoint x="120" y="-88.18" as="sourcePoint" />
            <mxPoint x="1181.0000000000002" y="-88.18000000000006" as="targetPoint" />
          </mxGeometry>
        </mxCell>
        <mxCell id="Qrs4UdfkYSaOgJ5aVB63-131" value="" style="edgeStyle=orthogonalEdgeStyle;rounded=0;html=1;jettySize=auto;orthogonalLoop=1;strokeWidth=4;endArrow=none;endFill=0;dashed=1;strokeColor=#808080;" edge="1" parent="1">
          <mxGeometry x="192.25" y="211" as="geometry">
            <mxPoint x="120" y="111.72" as="sourcePoint" />
            <mxPoint x="1631" y="111.95" as="targetPoint" />
          </mxGeometry>
        </mxCell>
        <mxCell id="Qrs4UdfkYSaOgJ5aVB63-85" value="" style="edgeStyle=orthogonalEdgeStyle;rounded=0;html=1;jettySize=auto;orthogonalLoop=1;strokeWidth=4;endArrow=none;endFill=0;dashed=1;strokeColor=#808080;" edge="1" parent="1">
          <mxGeometry x="192.25" y="211" as="geometry">
            <mxPoint x="120" y="11.769999999999989" as="sourcePoint" />
            <mxPoint x="1631" y="12" as="targetPoint" />
          </mxGeometry>
        </mxCell>
        <mxCell id="Qrs4UdfkYSaOgJ5aVB63-82" value="" style="edgeStyle=orthogonalEdgeStyle;rounded=0;html=1;jettySize=auto;orthogonalLoop=1;strokeWidth=4;endArrow=none;endFill=0;dashed=1;strokeColor=#808080;" edge="1" parent="1">
          <mxGeometry x="192.25" y="211" as="geometry">
            <mxPoint x="120" y="621.14" as="sourcePoint" />
            <mxPoint x="1631" y="621" as="targetPoint" />
          </mxGeometry>
        </mxCell>
        <mxCell id="Qrs4UdfkYSaOgJ5aVB63-100" value="" style="edgeStyle=orthogonalEdgeStyle;rounded=0;html=1;jettySize=auto;orthogonalLoop=1;strokeWidth=4;endArrow=classic;endFill=0;" edge="1" parent="1">
          <mxGeometry x="192.25" y="211" as="geometry">
            <mxPoint x="120" y="211.76000000000002" as="sourcePoint" />
            <mxPoint x="1631" y="211.34" as="targetPoint" />
          </mxGeometry>
        </mxCell>
        <mxCell id="Qrs4UdfkYSaOgJ5aVB63-83" value="" style="edgeStyle=orthogonalEdgeStyle;rounded=0;html=1;jettySize=auto;orthogonalLoop=1;strokeWidth=4;endArrow=none;endFill=0;dashed=1;strokeColor=#808080;" edge="1" parent="1">
          <mxGeometry x="192.25" y="211" as="geometry">
            <mxPoint x="120" y="516.89" as="sourcePoint" />
            <mxPoint x="1631" y="517" as="targetPoint" />
          </mxGeometry>
        </mxCell>
        <mxCell id="Qrs4UdfkYSaOgJ5aVB63-84" value="" style="edgeStyle=orthogonalEdgeStyle;rounded=0;html=1;jettySize=auto;orthogonalLoop=1;strokeWidth=4;endArrow=none;endFill=0;dashed=1;strokeColor=#808080;" edge="1" parent="1">
          <mxGeometry x="192.25" y="211" as="geometry">
            <mxPoint x="120" y="412" as="sourcePoint" />
            <mxPoint x="1631" y="412" as="targetPoint" />
          </mxGeometry>
        </mxCell>
        <mxCell id="Qrs4UdfkYSaOgJ5aVB63-80" value="" style="edgeStyle=orthogonalEdgeStyle;rounded=0;html=1;jettySize=auto;orthogonalLoop=1;strokeWidth=4;endArrow=classic;endFill=0;" edge="1" parent="1">
          <mxGeometry x="192.25" y="211" as="geometry">
            <mxPoint x="120" y="310.42" as="sourcePoint" />
            <mxPoint x="1631" y="310" as="targetPoint" />
          </mxGeometry>
        </mxCell>
        <mxCell id="uWUnNED6HEl2aK5fdaIb-10" value="" style="verticalLabelPosition=bottom;verticalAlign=top;html=1;strokeWidth=4;shape=mxgraph.flowchart.on-page_reference;plain-blue;fillColor=#dae8fc;strokeColor=#000000;gradientColor=none;fontSize=20;" parent="1" vertex="1">
          <mxGeometry x="169.25" y="196" width="30" height="30" as="geometry" />
        </mxCell>
        <mxCell id="uWUnNED6HEl2aK5fdaIb-17" value="" style="verticalLabelPosition=bottom;verticalAlign=top;html=1;strokeWidth=4;shape=mxgraph.flowchart.on-page_reference;plain-purple;strokeColor=#000000;fillColor=#fff2cc;gradientColor=none;fontSize=20;" parent="1" vertex="1">
          <mxGeometry x="339" y="397.25" width="30" height="30" as="geometry" />
        </mxCell>
        <mxCell id="uWUnNED6HEl2aK5fdaIb-94" style="edgeStyle=orthogonalEdgeStyle;curved=1;rounded=0;orthogonalLoop=1;jettySize=auto;html=1;exitX=1;exitY=0.5;exitDx=0;exitDy=0;exitPerimeter=0;entryX=0;entryY=0.5;entryDx=0;entryDy=0;entryPerimeter=0;endArrow=none;endFill=0;strokeWidth=4;fontFamily=Courier New;fontColor=#009900;fontSize=20;" parent="1" edge="1">
          <mxGeometry relative="1" as="geometry">
            <mxPoint x="465" y="516.9600000000003" as="sourcePoint" />
            <mxPoint x="512" y="516.9600000000003" as="targetPoint" />
          </mxGeometry>
        </mxCell>
        <mxCell id="uWUnNED6HEl2aK5fdaIb-69" value="" style="verticalLabelPosition=bottom;verticalAlign=top;html=1;strokeWidth=4;shape=mxgraph.flowchart.on-page_reference;plain-purple;strokeColor=#000000;fillColor=#e1d5e7;gradientColor=none;fontSize=20;" parent="1" vertex="1">
          <mxGeometry x="435" y="503" width="30" height="30" as="geometry" />
        </mxCell>
        <mxCell id="uWUnNED6HEl2aK5fdaIb-70" value="" style="verticalLabelPosition=bottom;verticalAlign=top;html=1;strokeWidth=4;shape=mxgraph.flowchart.on-page_reference;plain-purple;strokeColor=#000000;fillColor=#60a917;fontColor=#ffffff;gradientColor=none;fontSize=20;" parent="1" vertex="1">
          <mxGeometry x="1024" y="-2.75" width="30" height="30" as="geometry" />
        </mxCell>
        <mxCell id="uWUnNED6HEl2aK5fdaIb-82" value="" style="verticalLabelPosition=bottom;verticalAlign=top;html=1;strokeWidth=4;shape=mxgraph.flowchart.on-page_reference;plain-purple;strokeColor=#000000;fillColor=#e1d5e7;gradientColor=none;fontSize=20;" parent="1" vertex="1">
          <mxGeometry x="512" y="503" width="30" height="30" as="geometry" />
        </mxCell>
        <mxCell id="uWUnNED6HEl2aK5fdaIb-103" value="Tag: 25.2.1" style="text;html=1;strokeColor=none;fillColor=none;align=center;verticalAlign=middle;whiteSpace=wrap;overflow=hidden;fontSize=20;" parent="1" vertex="1">
          <mxGeometry x="108.75" y="150" width="126.12" height="30" as="geometry" />
        </mxCell>
        <mxCell id="uWUnNED6HEl2aK5fdaIb-104" value="" style="verticalLabelPosition=bottom;verticalAlign=top;html=1;strokeWidth=4;shape=mxgraph.flowchart.on-page_reference;plain-purple;gradientColor=none;strokeColor=#000000;fillColor=#D5E8D4;fontSize=20;" parent="1" vertex="1">
          <mxGeometry x="1334" y="296.25" width="30" height="30" as="geometry" />
        </mxCell>
        <mxCell id="9hBKPDzoitwpIBdzFDQ7-15" value="&lt;div style=&quot;text-align: center;&quot;&gt;&lt;span style=&quot;background-color: transparent; color: light-dark(rgb(0, 0, 0), rgb(237, 237, 237));&quot;&gt;&lt;font&gt;代码评审&lt;/font&gt;&lt;/span&gt;&lt;/div&gt;" style="text;html=1;strokeColor=none;fillColor=none;align=left;verticalAlign=middle;whiteSpace=wrap;overflow=hidden;fontSize=20;fontStyle=0;fontColor=#000000;" parent="1" vertex="1">
          <mxGeometry x="579" y="460" width="122" height="30" as="geometry" />
        </mxCell>
        <mxCell id="9hBKPDzoitwpIBdzFDQ7-16" value="" style="verticalLabelPosition=bottom;verticalAlign=top;html=1;strokeWidth=4;shape=mxgraph.flowchart.on-page_reference;plain-blue;strokeColor=#000000;fillColor=#dae8fc;gradientColor=none;fontSize=20;" parent="1" vertex="1">
          <mxGeometry x="397.25" y="196" width="30" height="30" as="geometry" />
        </mxCell>
        <mxCell id="9hBKPDzoitwpIBdzFDQ7-61" value="Tag: 25.2.1-rev" style="text;html=1;strokeColor=none;fillColor=none;align=center;verticalAlign=middle;whiteSpace=wrap;overflow=hidden;fontSize=20;" parent="1" vertex="1">
          <mxGeometry x="386.75" y="150" width="160.5" height="30" as="geometry" />
        </mxCell>
        <mxCell id="Qrs4UdfkYSaOgJ5aVB63-4" value="&lt;font&gt;master&lt;/font&gt;" style="rounded=1;whiteSpace=wrap;html=1;fillColor=#dae8fc;strokeColor=#6c8ebf;fontSize=22;" vertex="1" parent="1">
          <mxGeometry y="190" width="108.75" height="44.5" as="geometry" />
        </mxCell>
        <mxCell id="Qrs4UdfkYSaOgJ5aVB63-5" value="&lt;font&gt;develop&lt;/font&gt;" style="rounded=1;whiteSpace=wrap;html=1;fillColor=#d5e8d4;strokeColor=#82b366;fontSize=22;" vertex="1" parent="1">
          <mxGeometry y="289" width="108.75" height="44.5" as="geometry" />
        </mxCell>
        <mxCell id="uWUnNED6HEl2aK5fdaIb-15" value="" style="verticalLabelPosition=bottom;verticalAlign=top;html=1;strokeWidth=4;shape=mxgraph.flowchart.on-page_reference;plain-purple;gradientColor=none;strokeColor=#000000;fillColor=#D5E8D4;fontSize=20;" parent="1" vertex="1">
          <mxGeometry x="241" y="296.25" width="30" height="30" as="geometry" />
        </mxCell>
        <mxCell id="Qrs4UdfkYSaOgJ5aVB63-13" value="&lt;font&gt;feature/A&lt;/font&gt;" style="rounded=1;whiteSpace=wrap;html=1;fillColor=#fff2cc;strokeColor=#d6b656;fontSize=22;" vertex="1" parent="1">
          <mxGeometry y="390" width="108.75" height="44.5" as="geometry" />
        </mxCell>
        <mxCell id="Qrs4UdfkYSaOgJ5aVB63-14" value="&lt;font&gt;name/B&lt;/font&gt;" style="rounded=1;whiteSpace=wrap;html=1;fillColor=#e1d5e7;strokeColor=#9673a6;fontSize=22;" vertex="1" parent="1">
          <mxGeometry y="495.75" width="108.75" height="44.5" as="geometry" />
        </mxCell>
        <mxCell id="Qrs4UdfkYSaOgJ5aVB63-17" value="" style="verticalLabelPosition=bottom;verticalAlign=top;html=1;strokeWidth=4;shape=mxgraph.flowchart.on-page_reference;plain-purple;strokeColor=#000000;fillColor=#fff2cc;gradientColor=none;fontSize=20;" vertex="1" parent="1">
          <mxGeometry x="609" y="397.25" width="30" height="30" as="geometry" />
        </mxCell>
        <mxCell id="Qrs4UdfkYSaOgJ5aVB63-30" style="edgeStyle=orthogonalEdgeStyle;curved=1;rounded=0;html=1;exitX=1;exitY=0.5;exitPerimeter=0;entryX=0;entryY=0.5;entryPerimeter=0;endArrow=none;endFill=0;jettySize=auto;orthogonalLoop=1;strokeWidth=4;fontSize=20;entryDx=0;entryDy=0;exitDx=0;exitDy=0;" edge="1" parent="1" source="uWUnNED6HEl2aK5fdaIb-82" target="Qrs4UdfkYSaOgJ5aVB63-17">
          <mxGeometry relative="1" as="geometry">
            <mxPoint x="558.75" y="526.25" as="sourcePoint" />
            <mxPoint x="618.75" y="425" as="targetPoint" />
          </mxGeometry>
        </mxCell>
        <mxCell id="Qrs4UdfkYSaOgJ5aVB63-32" style="edgeStyle=orthogonalEdgeStyle;curved=1;rounded=0;html=1;exitX=0;exitY=0.5;exitPerimeter=0;entryX=1;entryY=0.5;entryPerimeter=0;endArrow=none;endFill=0;jettySize=auto;orthogonalLoop=1;strokeWidth=4;fontSize=20;entryDx=0;entryDy=0;exitDx=0;exitDy=0;" edge="1" parent="1" source="uWUnNED6HEl2aK5fdaIb-17" target="uWUnNED6HEl2aK5fdaIb-15">
          <mxGeometry relative="1" as="geometry">
            <mxPoint x="273.47" y="465.01" as="sourcePoint" />
            <mxPoint x="340.47" y="359.01" as="targetPoint" />
          </mxGeometry>
        </mxCell>
        <mxCell id="Qrs4UdfkYSaOgJ5aVB63-33" style="edgeStyle=orthogonalEdgeStyle;curved=1;rounded=0;html=1;exitX=0;exitY=0.5;exitPerimeter=0;entryX=1;entryY=0.5;entryPerimeter=0;endArrow=none;endFill=0;jettySize=auto;orthogonalLoop=1;strokeWidth=4;fontSize=20;entryDx=0;entryDy=0;exitDx=0;exitDy=0;" edge="1" parent="1" source="uWUnNED6HEl2aK5fdaIb-69" target="uWUnNED6HEl2aK5fdaIb-17">
          <mxGeometry relative="1" as="geometry">
            <mxPoint x="456.25" y="502.47" as="sourcePoint" />
            <mxPoint x="386.25" y="401.47" as="targetPoint" />
          </mxGeometry>
        </mxCell>
        <mxCell id="Qrs4UdfkYSaOgJ5aVB63-34" style="edgeStyle=orthogonalEdgeStyle;curved=1;rounded=0;html=1;exitX=1;exitY=0.5;exitPerimeter=0;entryX=0;entryY=0.5;entryPerimeter=0;endArrow=none;endFill=0;jettySize=auto;orthogonalLoop=1;strokeWidth=4;fontSize=20;entryDx=0;entryDy=0;exitDx=0;exitDy=0;" edge="1" parent="1" source="Qrs4UdfkYSaOgJ5aVB63-17" target="Qrs4UdfkYSaOgJ5aVB63-20">
          <mxGeometry relative="1" as="geometry">
            <mxPoint x="653.25" y="426.78" as="sourcePoint" />
            <mxPoint x="720.25" y="320.78" as="targetPoint" />
          </mxGeometry>
        </mxCell>
        <mxCell id="Qrs4UdfkYSaOgJ5aVB63-20" value="" style="verticalLabelPosition=bottom;verticalAlign=top;html=1;strokeWidth=4;shape=mxgraph.flowchart.on-page_reference;plain-purple;gradientColor=none;strokeColor=#000000;fillColor=#D5E8D4;fontSize=20;" vertex="1" parent="1">
          <mxGeometry x="701.25" y="296.25" width="30" height="30" as="geometry" />
        </mxCell>
        <mxCell id="Qrs4UdfkYSaOgJ5aVB63-36" value="" style="edgeStyle=orthogonalEdgeStyle;rounded=0;html=1;jettySize=auto;orthogonalLoop=1;strokeWidth=4;endArrow=none;endFill=0;fontSize=20;" edge="1" parent="1">
          <mxGeometry x="192.25" y="211" as="geometry">
            <mxPoint x="369" y="412.02" as="sourcePoint" />
            <mxPoint x="609" y="411.95" as="targetPoint" />
          </mxGeometry>
        </mxCell>
        <mxCell id="Qrs4UdfkYSaOgJ5aVB63-37" value="&lt;font&gt;bugfix&lt;/font&gt;" style="rounded=1;whiteSpace=wrap;html=1;fillColor=#f8cecc;strokeColor=#b85450;fontSize=22;" vertex="1" parent="1">
          <mxGeometry y="600" width="108.75" height="44.5" as="geometry" />
        </mxCell>
        <mxCell id="Qrs4UdfkYSaOgJ5aVB63-38" style="edgeStyle=orthogonalEdgeStyle;curved=1;rounded=0;html=1;exitX=0;exitY=0.5;exitPerimeter=0;entryX=1;entryY=0.5;entryPerimeter=0;endArrow=none;endFill=0;jettySize=auto;orthogonalLoop=1;strokeWidth=4;fontSize=20;entryDx=0;entryDy=0;exitDx=0;exitDy=0;" edge="1" parent="1" source="Qrs4UdfkYSaOgJ5aVB63-39" target="Qrs4UdfkYSaOgJ5aVB63-20">
          <mxGeometry relative="1" as="geometry">
            <mxPoint x="829" y="441" as="sourcePoint" />
            <mxPoint x="761" y="340" as="targetPoint" />
          </mxGeometry>
        </mxCell>
        <mxCell id="Qrs4UdfkYSaOgJ5aVB63-39" value="" style="verticalLabelPosition=bottom;verticalAlign=top;html=1;strokeWidth=4;shape=mxgraph.flowchart.on-page_reference;plain-purple;strokeColor=#000000;fillColor=#f8cecc;gradientColor=none;fontSize=20;" vertex="1" parent="1">
          <mxGeometry x="813.25" y="607.25" width="30" height="30" as="geometry" />
        </mxCell>
        <mxCell id="Qrs4UdfkYSaOgJ5aVB63-41" style="edgeStyle=orthogonalEdgeStyle;curved=1;rounded=0;html=1;exitX=1;exitY=0.5;exitPerimeter=0;entryX=0;entryY=0.5;entryPerimeter=0;endArrow=none;endFill=0;jettySize=auto;orthogonalLoop=1;strokeWidth=4;fontSize=20;entryDx=0;entryDy=0;exitDx=0;exitDy=0;" edge="1" parent="1" source="Qrs4UdfkYSaOgJ5aVB63-39" target="Qrs4UdfkYSaOgJ5aVB63-42">
          <mxGeometry relative="1" as="geometry">
            <mxPoint x="843.25" y="427.25" as="sourcePoint" />
            <mxPoint x="905.25" y="326.25" as="targetPoint" />
          </mxGeometry>
        </mxCell>
        <mxCell id="Qrs4UdfkYSaOgJ5aVB63-42" value="" style="verticalLabelPosition=bottom;verticalAlign=top;html=1;strokeWidth=4;shape=mxgraph.flowchart.on-page_reference;plain-purple;gradientColor=none;strokeColor=#000000;fillColor=#D5E8D4;fontSize=20;" vertex="1" parent="1">
          <mxGeometry x="931" y="296.25" width="30" height="30" as="geometry" />
        </mxCell>
        <mxCell id="Qrs4UdfkYSaOgJ5aVB63-45" value="&lt;font&gt;hotfix&lt;/font&gt;" style="rounded=1;whiteSpace=wrap;html=1;fillColor=#f8cecc;strokeColor=#b85450;fontSize=22;" vertex="1" parent="1">
          <mxGeometry y="90" width="108.75" height="44.5" as="geometry" />
        </mxCell>
        <mxCell id="Qrs4UdfkYSaOgJ5aVB63-46" style="edgeStyle=orthogonalEdgeStyle;curved=1;rounded=0;html=1;entryX=0;entryY=0.5;entryPerimeter=0;endArrow=none;endFill=0;jettySize=auto;orthogonalLoop=1;strokeWidth=4;fontSize=20;entryDx=0;entryDy=0;exitX=1;exitY=0.5;exitDx=0;exitDy=0;exitPerimeter=0;" edge="1" parent="1" source="uWUnNED6HEl2aK5fdaIb-10" target="Qrs4UdfkYSaOgJ5aVB63-47">
          <mxGeometry relative="1" as="geometry">
            <mxPoint x="331" y="210" as="sourcePoint" />
            <mxPoint x="361" y="144.76" as="targetPoint" />
          </mxGeometry>
        </mxCell>
        <mxCell id="Qrs4UdfkYSaOgJ5aVB63-47" value="" style="verticalLabelPosition=bottom;verticalAlign=top;html=1;strokeWidth=4;shape=mxgraph.flowchart.on-page_reference;plain-blue;fillColor=#f8cecc;strokeColor=#000000;gradientColor=none;fontSize=20;" vertex="1" parent="1">
          <mxGeometry x="284" y="97.25" width="30" height="30" as="geometry" />
        </mxCell>
        <mxCell id="Qrs4UdfkYSaOgJ5aVB63-49" style="edgeStyle=orthogonalEdgeStyle;curved=1;rounded=0;html=1;exitX=0;exitY=0.5;exitPerimeter=0;entryX=1;entryY=0.5;entryPerimeter=0;endArrow=none;endFill=0;jettySize=auto;orthogonalLoop=1;strokeWidth=4;fontSize=20;entryDx=0;entryDy=0;exitDx=0;exitDy=0;" edge="1" parent="1" source="9hBKPDzoitwpIBdzFDQ7-16" target="Qrs4UdfkYSaOgJ5aVB63-47">
          <mxGeometry relative="1" as="geometry">
            <mxPoint x="372.49" y="271" as="sourcePoint" />
            <mxPoint x="434.49" y="170" as="targetPoint" />
          </mxGeometry>
        </mxCell>
        <mxCell id="Qrs4UdfkYSaOgJ5aVB63-50" value="&lt;div style=&quot;text-align: center;&quot;&gt;&lt;span style=&quot;background-color: transparent; color: light-dark(rgb(0, 0, 0), rgb(237, 237, 237));&quot;&gt;&lt;font&gt;代码评审&lt;/font&gt;&lt;/span&gt;&lt;/div&gt;" style="text;html=1;strokeColor=none;fillColor=none;align=left;verticalAlign=middle;whiteSpace=wrap;overflow=hidden;fontSize=20;fontStyle=0;fontColor=#000000;" vertex="1" parent="1">
          <mxGeometry x="892.25" y="570" width="118.75" height="30" as="geometry" />
        </mxCell>
        <mxCell id="Qrs4UdfkYSaOgJ5aVB63-55" style="edgeStyle=orthogonalEdgeStyle;curved=1;rounded=0;html=1;exitX=0;exitY=0.5;exitPerimeter=0;entryX=1;entryY=0.5;entryPerimeter=0;endArrow=none;endFill=0;jettySize=auto;orthogonalLoop=1;strokeWidth=4;fontSize=20;entryDx=0;entryDy=0;exitDx=0;exitDy=0;" edge="1" parent="1" source="Qrs4UdfkYSaOgJ5aVB63-56" target="9hBKPDzoitwpIBdzFDQ7-16">
          <mxGeometry relative="1" as="geometry">
            <mxPoint x="601.5" y="309" as="sourcePoint" />
            <mxPoint x="529.5" y="210" as="targetPoint" />
          </mxGeometry>
        </mxCell>
        <mxCell id="Qrs4UdfkYSaOgJ5aVB63-56" value="" style="verticalLabelPosition=bottom;verticalAlign=top;html=1;strokeWidth=4;shape=mxgraph.flowchart.on-page_reference;plain-purple;gradientColor=none;strokeColor=#000000;fillColor=#D5E8D4;fontSize=20;" vertex="1" parent="1">
          <mxGeometry x="537.25" y="296.25" width="30" height="30" as="geometry" />
        </mxCell>
        <mxCell id="Qrs4UdfkYSaOgJ5aVB63-58" value="&lt;div style=&quot;text-align: center;&quot;&gt;&lt;span style=&quot;background-color: transparent; color: light-dark(rgb(0, 0, 0), rgb(237, 237, 237));&quot;&gt;&lt;font&gt;代码评审&lt;/font&gt;&lt;/span&gt;&lt;/div&gt;" style="text;html=1;strokeColor=none;fillColor=none;align=left;verticalAlign=middle;whiteSpace=wrap;overflow=hidden;fontSize=20;fontStyle=0;fontColor=#000000;" vertex="1" parent="1">
          <mxGeometry x="422" y="70" width="90" height="30" as="geometry" />
        </mxCell>
        <mxCell id="Qrs4UdfkYSaOgJ5aVB63-62" style="edgeStyle=orthogonalEdgeStyle;curved=1;rounded=0;html=1;exitX=0;exitY=0.5;exitPerimeter=0;entryX=1;entryY=0.5;entryPerimeter=0;endArrow=none;endFill=0;jettySize=auto;orthogonalLoop=1;strokeWidth=4;fontSize=20;entryDx=0;entryDy=0;exitDx=0;exitDy=0;" edge="1" parent="1" source="uWUnNED6HEl2aK5fdaIb-70" target="Qrs4UdfkYSaOgJ5aVB63-42">
          <mxGeometry relative="1" as="geometry">
            <mxPoint x="1083" y="714" as="sourcePoint" />
            <mxPoint x="1001" y="403" as="targetPoint" />
          </mxGeometry>
        </mxCell>
        <mxCell id="Qrs4UdfkYSaOgJ5aVB63-63" value="&lt;font&gt;release/*&lt;/font&gt;" style="rounded=1;whiteSpace=wrap;html=1;fillColor=#60a917;strokeColor=#2D7600;fontColor=#ffffff;fontSize=22;" vertex="1" parent="1">
          <mxGeometry y="-10" width="108.75" height="44.5" as="geometry" />
        </mxCell>
        <mxCell id="Qrs4UdfkYSaOgJ5aVB63-64" value="&lt;font&gt;bugfix&lt;/font&gt;" style="rounded=1;whiteSpace=wrap;html=1;fillColor=#f8cecc;strokeColor=#b85450;fontSize=22;" vertex="1" parent="1">
          <mxGeometry y="-110" width="108.75" height="44.5" as="geometry" />
        </mxCell>
        <mxCell id="Qrs4UdfkYSaOgJ5aVB63-73" value="" style="edgeStyle=orthogonalEdgeStyle;rounded=0;orthogonalLoop=1;jettySize=auto;html=1;fontSize=20;endArrow=none;endFill=0;strokeWidth=4;exitX=1;exitY=0.5;exitDx=0;exitDy=0;exitPerimeter=0;" edge="1" parent="1" source="uWUnNED6HEl2aK5fdaIb-70" target="Qrs4UdfkYSaOgJ5aVB63-70">
          <mxGeometry relative="1" as="geometry">
            <mxPoint x="1979" y="11.25" as="targetPoint" />
            <mxPoint x="1101" y="11.25" as="sourcePoint" />
          </mxGeometry>
        </mxCell>
        <mxCell id="Qrs4UdfkYSaOgJ5aVB63-70" value="" style="verticalLabelPosition=bottom;verticalAlign=top;html=1;strokeWidth=4;shape=mxgraph.flowchart.on-page_reference;plain-purple;strokeColor=#000000;fillColor=#60a917;fontColor=#ffffff;gradientColor=none;fontSize=20;" vertex="1" parent="1">
          <mxGeometry x="1255" y="-2.75" width="30" height="30" as="geometry" />
        </mxCell>
        <mxCell id="Qrs4UdfkYSaOgJ5aVB63-86" value="" style="verticalLabelPosition=bottom;verticalAlign=top;html=1;strokeWidth=4;shape=mxgraph.flowchart.on-page_reference;plain-blue;strokeColor=#000000;fillColor=#dae8fc;gradientColor=none;fontSize=20;" vertex="1" parent="1">
          <mxGeometry x="1334" y="196" width="30" height="30" as="geometry" />
        </mxCell>
        <mxCell id="Qrs4UdfkYSaOgJ5aVB63-88" style="edgeStyle=orthogonalEdgeStyle;curved=1;rounded=0;html=1;exitX=1;exitY=0.5;exitPerimeter=0;entryX=0;entryY=0.5;entryPerimeter=0;endArrow=none;endFill=0;jettySize=auto;orthogonalLoop=1;strokeWidth=4;fontSize=20;entryDx=0;entryDy=0;exitDx=0;exitDy=0;" edge="1" parent="1" source="Qrs4UdfkYSaOgJ5aVB63-70" target="Qrs4UdfkYSaOgJ5aVB63-86">
          <mxGeometry relative="1" as="geometry">
            <mxPoint x="1291" y="62.25" as="sourcePoint" />
            <mxPoint x="1344" y="162.25" as="targetPoint" />
          </mxGeometry>
        </mxCell>
        <mxCell id="Qrs4UdfkYSaOgJ5aVB63-89" value="Tag: 26.1.0" style="text;html=1;strokeColor=none;fillColor=none;align=center;verticalAlign=middle;whiteSpace=wrap;overflow=hidden;fontSize=20;" vertex="1" parent="1">
          <mxGeometry x="1329" y="150" width="127" height="30" as="geometry" />
        </mxCell>
        <mxCell id="Qrs4UdfkYSaOgJ5aVB63-90" value="&lt;span&gt;support/*&lt;/span&gt;" style="rounded=1;whiteSpace=wrap;html=1;fillColor=#a20025;strokeColor=#6F0000;fontColor=#ffffff;fontSize=22;" vertex="1" parent="1">
          <mxGeometry y="-210" width="108.75" height="44.5" as="geometry" />
        </mxCell>
        <mxCell id="Qrs4UdfkYSaOgJ5aVB63-92" value="" style="edgeStyle=orthogonalEdgeStyle;rounded=0;html=1;jettySize=auto;orthogonalLoop=1;strokeWidth=4;endArrow=classic;endFill=0;" edge="1" parent="1">
          <mxGeometry x="192.25" y="211" as="geometry">
            <mxPoint x="120" y="-188.38727272727297" as="sourcePoint" />
            <mxPoint x="1631" y="-188.66" as="targetPoint" />
          </mxGeometry>
        </mxCell>
        <mxCell id="Qrs4UdfkYSaOgJ5aVB63-95" value="" style="verticalLabelPosition=bottom;verticalAlign=top;html=1;strokeWidth=4;shape=mxgraph.flowchart.on-page_reference;plain-purple;strokeColor=#000000;fillColor=#a20025;fontColor=#ffffff;gradientColor=none;fontSize=20;" vertex="1" parent="1">
          <mxGeometry x="1462" y="-202.75" width="30" height="30" as="geometry" />
        </mxCell>
        <mxCell id="Qrs4UdfkYSaOgJ5aVB63-101" value="" style="verticalLabelPosition=bottom;verticalAlign=top;html=1;strokeWidth=4;shape=mxgraph.flowchart.on-page_reference;plain-purple;gradientColor=none;strokeColor=#000000;fillColor=#D5E8D4;fontSize=20;" vertex="1" parent="1">
          <mxGeometry x="1426" y="296.25" width="30" height="30" as="geometry" />
        </mxCell>
        <mxCell id="Qrs4UdfkYSaOgJ5aVB63-108" style="edgeStyle=orthogonalEdgeStyle;curved=1;rounded=0;html=1;exitX=1;exitY=0.5;exitPerimeter=0;entryX=0;entryY=0.5;entryPerimeter=0;endArrow=none;endFill=0;jettySize=auto;orthogonalLoop=1;strokeWidth=4;fontSize=20;entryDx=0;entryDy=0;exitDx=0;exitDy=0;" edge="1" parent="1" source="Qrs4UdfkYSaOgJ5aVB63-86" target="Qrs4UdfkYSaOgJ5aVB63-101">
          <mxGeometry relative="1" as="geometry">
            <mxPoint x="1377.5" y="227.25" as="sourcePoint" />
            <mxPoint x="1430.5" y="327.25" as="targetPoint" />
          </mxGeometry>
        </mxCell>
        <mxCell id="Qrs4UdfkYSaOgJ5aVB63-116" value="" style="verticalLabelPosition=bottom;verticalAlign=top;html=1;strokeWidth=4;shape=mxgraph.flowchart.on-page_reference;plain-purple;strokeColor=#000000;fillColor=#fff2cc;gradientColor=none;fontSize=20;" vertex="1" parent="1">
          <mxGeometry x="1019" y="397.25" width="30" height="30" as="geometry" />
        </mxCell>
        <mxCell id="Qrs4UdfkYSaOgJ5aVB63-117" value="" style="verticalLabelPosition=bottom;verticalAlign=top;html=1;strokeWidth=4;shape=mxgraph.flowchart.on-page_reference;plain-purple;strokeColor=#000000;fillColor=#e1d5e7;gradientColor=none;fontSize=20;" vertex="1" parent="1">
          <mxGeometry x="1097" y="503" width="30" height="30" as="geometry" />
        </mxCell>
        <mxCell id="Qrs4UdfkYSaOgJ5aVB63-118" value="" style="verticalLabelPosition=bottom;verticalAlign=top;html=1;strokeWidth=4;shape=mxgraph.flowchart.on-page_reference;plain-purple;strokeColor=#000000;fillColor=#e1d5e7;gradientColor=none;fontSize=20;" vertex="1" parent="1">
          <mxGeometry x="1174" y="503" width="30" height="30" as="geometry" />
        </mxCell>
        <mxCell id="Qrs4UdfkYSaOgJ5aVB63-120" style="edgeStyle=orthogonalEdgeStyle;curved=1;rounded=0;html=1;entryX=1;entryY=0.5;entryPerimeter=0;endArrow=none;endFill=0;jettySize=auto;orthogonalLoop=1;strokeWidth=4;fontSize=20;entryDx=0;entryDy=0;exitX=0;exitY=0.5;exitDx=0;exitDy=0;exitPerimeter=0;" edge="1" parent="1" source="Qrs4UdfkYSaOgJ5aVB63-116" target="Qrs4UdfkYSaOgJ5aVB63-42">
          <mxGeometry relative="1" as="geometry">
            <mxPoint x="1001" y="410" as="sourcePoint" />
            <mxPoint x="982" y="361.5" as="targetPoint" />
          </mxGeometry>
        </mxCell>
        <mxCell id="Qrs4UdfkYSaOgJ5aVB63-122" style="edgeStyle=orthogonalEdgeStyle;curved=1;rounded=0;html=1;entryX=1;entryY=0.5;entryPerimeter=0;endArrow=none;endFill=0;jettySize=auto;orthogonalLoop=1;strokeWidth=4;fontSize=20;entryDx=0;entryDy=0;exitX=0;exitY=0.5;exitDx=0;exitDy=0;exitPerimeter=0;" edge="1" parent="1" source="Qrs4UdfkYSaOgJ5aVB63-117" target="Qrs4UdfkYSaOgJ5aVB63-116">
          <mxGeometry relative="1" as="geometry">
            <mxPoint x="1162" y="495.19" as="sourcePoint" />
            <mxPoint x="1104" y="394.19" as="targetPoint" />
          </mxGeometry>
        </mxCell>
        <mxCell id="Qrs4UdfkYSaOgJ5aVB63-119" value="" style="verticalLabelPosition=bottom;verticalAlign=top;html=1;strokeWidth=4;shape=mxgraph.flowchart.on-page_reference;plain-purple;strokeColor=#000000;fillColor=#fff2cc;gradientColor=none;fontSize=20;" vertex="1" parent="1">
          <mxGeometry x="1253" y="397.25" width="30" height="30" as="geometry" />
        </mxCell>
        <mxCell id="Qrs4UdfkYSaOgJ5aVB63-125" style="edgeStyle=orthogonalEdgeStyle;curved=1;rounded=0;html=1;exitX=1;exitY=0.5;exitPerimeter=0;entryX=0;entryY=0.5;entryPerimeter=0;endArrow=none;endFill=0;jettySize=auto;orthogonalLoop=1;strokeWidth=4;fontSize=20;entryDx=0;entryDy=0;exitDx=0;exitDy=0;" edge="1" parent="1" source="Qrs4UdfkYSaOgJ5aVB63-118" target="Qrs4UdfkYSaOgJ5aVB63-119">
          <mxGeometry relative="1" as="geometry">
            <mxPoint x="1181" y="566" as="sourcePoint" />
            <mxPoint x="1248" y="460" as="targetPoint" />
          </mxGeometry>
        </mxCell>
        <mxCell id="Qrs4UdfkYSaOgJ5aVB63-129" style="edgeStyle=orthogonalEdgeStyle;curved=1;rounded=0;html=1;exitX=1;exitY=0.5;exitPerimeter=0;entryX=0;entryY=0.5;entryPerimeter=0;endArrow=none;endFill=0;jettySize=auto;orthogonalLoop=1;strokeWidth=4;fontSize=20;entryDx=0;entryDy=0;exitDx=0;exitDy=0;" edge="1" parent="1" source="Qrs4UdfkYSaOgJ5aVB63-119" target="uWUnNED6HEl2aK5fdaIb-104">
          <mxGeometry relative="1" as="geometry">
            <mxPoint x="1271" y="456" as="sourcePoint" />
            <mxPoint x="1320" y="350" as="targetPoint" />
          </mxGeometry>
        </mxCell>
        <mxCell id="Qrs4UdfkYSaOgJ5aVB63-130" value="" style="edgeStyle=orthogonalEdgeStyle;rounded=0;html=1;jettySize=auto;orthogonalLoop=1;strokeWidth=4;endArrow=none;endFill=0;fontSize=20;" edge="1" parent="1">
          <mxGeometry x="192.25" y="211" as="geometry">
            <mxPoint x="1049" y="411.55" as="sourcePoint" />
            <mxPoint x="1251" y="411" as="targetPoint" />
          </mxGeometry>
        </mxCell>
        <mxCell id="Qrs4UdfkYSaOgJ5aVB63-134" value="Tag: 25.2.3" style="text;html=1;strokeColor=none;fillColor=none;align=center;verticalAlign=middle;whiteSpace=wrap;overflow=hidden;fontSize=20;" vertex="1" parent="1">
          <mxGeometry x="1507.1299999999999" y="-270" width="137.75" height="60" as="geometry" />
        </mxCell>
        <mxCell id="Qrs4UdfkYSaOgJ5aVB63-142" style="edgeStyle=orthogonalEdgeStyle;curved=1;rounded=0;html=1;exitX=0;exitY=0.5;exitPerimeter=0;endArrow=none;endFill=0;jettySize=auto;orthogonalLoop=1;strokeWidth=4;fontSize=20;exitDx=0;exitDy=0;" edge="1" parent="1" source="Qrs4UdfkYSaOgJ5aVB63-95">
          <mxGeometry relative="1" as="geometry">
            <mxPoint x="1388" y="-185.75" as="sourcePoint" />
            <mxPoint x="1251" y="212" as="targetPoint" />
            <Array as="points">
              <mxPoint x="1331" y="-188" />
              <mxPoint x="1331" y="212" />
            </Array>
          </mxGeometry>
        </mxCell>
        <mxCell id="Qrs4UdfkYSaOgJ5aVB63-143" style="edgeStyle=orthogonalEdgeStyle;curved=1;rounded=0;html=1;exitX=0;exitY=0.5;exitPerimeter=0;entryX=1;entryY=0.5;entryPerimeter=0;endArrow=none;endFill=0;jettySize=auto;orthogonalLoop=1;strokeWidth=4;fontSize=20;entryDx=0;entryDy=0;exitDx=0;exitDy=0;" edge="1" parent="1" source="uWUnNED6HEl2aK5fdaIb-15" target="uWUnNED6HEl2aK5fdaIb-10">
          <mxGeometry relative="1" as="geometry">
            <mxPoint x="341" y="333.02" as="sourcePoint" />
            <mxPoint x="263" y="233.02" as="targetPoint" />
          </mxGeometry>
        </mxCell>
        <mxCell id="Qrs4UdfkYSaOgJ5aVB63-144" style="edgeStyle=orthogonalEdgeStyle;curved=1;rounded=0;html=1;entryX=1;entryY=0.5;entryPerimeter=0;endArrow=none;endFill=0;jettySize=auto;orthogonalLoop=1;strokeWidth=4;fontSize=20;entryDx=0;entryDy=0;exitX=1.041;exitY=0.514;exitDx=0;exitDy=0;exitPerimeter=0;dashed=1;" edge="1" parent="1" target="Qrs4UdfkYSaOgJ5aVB63-101">
          <mxGeometry relative="1" as="geometry">
            <mxPoint x="1547.23" y="-187.32999999999993" as="sourcePoint" />
            <mxPoint x="1510" y="311.25" as="targetPoint" />
          </mxGeometry>
        </mxCell>
        <mxCell id="Qrs4UdfkYSaOgJ5aVB63-145" style="edgeStyle=orthogonalEdgeStyle;curved=1;rounded=0;orthogonalLoop=1;jettySize=auto;html=1;exitX=1;exitY=0.5;exitDx=0;exitDy=0;exitPerimeter=0;entryX=0;entryY=0.5;entryDx=0;entryDy=0;entryPerimeter=0;endArrow=none;endFill=0;strokeWidth=4;fontFamily=Courier New;fontColor=#009900;fontSize=20;" edge="1" parent="1">
          <mxGeometry relative="1" as="geometry">
            <mxPoint x="1127" y="518" as="sourcePoint" />
            <mxPoint x="1174" y="518" as="targetPoint" />
          </mxGeometry>
        </mxCell>
        <mxCell id="Qrs4UdfkYSaOgJ5aVB63-146" value="&lt;div style=&quot;text-align: center;&quot;&gt;&lt;span style=&quot;background-color: transparent; color: light-dark(rgb(0, 0, 0), rgb(237, 237, 237));&quot;&gt;&lt;font&gt;按需合并&lt;/font&gt;&lt;/span&gt;&lt;/div&gt;" style="text;html=1;strokeColor=none;fillColor=none;align=left;verticalAlign=middle;whiteSpace=wrap;overflow=hidden;fontSize=20;fontStyle=0;fontColor=#000000;" vertex="1" parent="1">
          <mxGeometry x="1521" y="40" width="90" height="30" as="geometry" />
        </mxCell>
        <mxCell id="Qrs4UdfkYSaOgJ5aVB63-147" value="" style="verticalLabelPosition=bottom;verticalAlign=top;html=1;strokeWidth=4;shape=mxgraph.flowchart.on-page_reference;plain-purple;strokeColor=#000000;fillColor=#a20025;fontColor=#ffffff;gradientColor=none;fontSize=20;" vertex="1" parent="1">
          <mxGeometry x="1561" y="-202.75" width="30" height="30" as="geometry" />
        </mxCell>
        <mxCell id="Qrs4UdfkYSaOgJ5aVB63-152" value="" style="edgeStyle=orthogonalEdgeStyle;rounded=0;orthogonalLoop=1;jettySize=auto;html=1;fontSize=20;endArrow=none;endFill=0;strokeWidth=4;exitX=1;exitY=0.5;exitDx=0;exitDy=0;exitPerimeter=0;entryX=0;entryY=0.5;entryDx=0;entryDy=0;entryPerimeter=0;" edge="1" parent="1" source="Qrs4UdfkYSaOgJ5aVB63-68" target="Qrs4UdfkYSaOgJ5aVB63-173">
          <mxGeometry relative="1" as="geometry">
            <mxPoint x="1181.0000000000002" y="-87.75" as="targetPoint" />
            <mxPoint x="1161" y="10" as="sourcePoint" />
          </mxGeometry>
        </mxCell>
        <mxCell id="Qrs4UdfkYSaOgJ5aVB63-153" style="edgeStyle=orthogonalEdgeStyle;curved=1;rounded=0;html=1;entryX=0;entryY=0.5;entryPerimeter=0;endArrow=none;endFill=0;jettySize=auto;orthogonalLoop=1;strokeWidth=4;fontSize=20;entryDx=0;entryDy=0;dashed=1;exitX=1;exitY=0.5;exitDx=0;exitDy=0;exitPerimeter=0;" edge="1" parent="1" source="Qrs4UdfkYSaOgJ5aVB63-154" target="uWUnNED6HEl2aK5fdaIb-104">
          <mxGeometry relative="1" as="geometry">
            <mxPoint x="1170" y="80" as="sourcePoint" />
            <mxPoint x="1750" y="578.3299999999999" as="targetPoint" />
          </mxGeometry>
        </mxCell>
        <mxCell id="Qrs4UdfkYSaOgJ5aVB63-154" value="" style="verticalLabelPosition=bottom;verticalAlign=top;html=1;strokeWidth=4;shape=mxgraph.flowchart.on-page_reference;plain-purple;strokeColor=#000000;fillColor=#60a917;fontColor=#ffffff;gradientColor=none;fontSize=20;" vertex="1" parent="1">
          <mxGeometry x="1139" y="-2" width="30" height="30" as="geometry" />
        </mxCell>
        <mxCell id="Qrs4UdfkYSaOgJ5aVB63-159" style="edgeStyle=orthogonalEdgeStyle;curved=1;rounded=0;html=1;exitX=1;exitY=0.5;exitPerimeter=0;entryX=0;entryY=0.5;entryPerimeter=0;endArrow=none;endFill=0;jettySize=auto;orthogonalLoop=1;strokeWidth=4;fontSize=20;entryDx=0;entryDy=0;exitDx=0;exitDy=0;" edge="1" parent="1" source="Qrs4UdfkYSaOgJ5aVB63-68" target="Qrs4UdfkYSaOgJ5aVB63-154">
          <mxGeometry relative="1" as="geometry">
            <mxPoint x="1131.49" y="-44.5" as="sourcePoint" />
            <mxPoint x="1180.49" y="154.5" as="targetPoint" />
            <Array as="points">
              <mxPoint x="1124" y="-88" />
              <mxPoint x="1124" y="13" />
            </Array>
          </mxGeometry>
        </mxCell>
        <mxCell id="Qrs4UdfkYSaOgJ5aVB63-169" style="edgeStyle=orthogonalEdgeStyle;curved=1;rounded=0;html=1;exitX=0;exitY=0.5;exitPerimeter=0;endArrow=none;endFill=0;jettySize=auto;orthogonalLoop=1;strokeWidth=4;fontSize=20;exitDx=0;exitDy=0;entryX=1;entryY=0.5;entryDx=0;entryDy=0;entryPerimeter=0;" edge="1" parent="1" source="Qrs4UdfkYSaOgJ5aVB63-68" target="uWUnNED6HEl2aK5fdaIb-70">
          <mxGeometry relative="1" as="geometry">
            <mxPoint x="1117" y="-64.5" as="sourcePoint" />
            <mxPoint x="1060" y="100" as="targetPoint" />
            <Array as="points">
              <mxPoint x="1070" y="-88" />
              <mxPoint x="1070" y="12" />
            </Array>
          </mxGeometry>
        </mxCell>
        <mxCell id="Qrs4UdfkYSaOgJ5aVB63-170" value="" style="edgeStyle=orthogonalEdgeStyle;rounded=0;html=1;jettySize=auto;orthogonalLoop=1;strokeWidth=4;endArrow=none;endFill=0;dashed=1;strokeColor=#808080;" edge="1" parent="1" target="Qrs4UdfkYSaOgJ5aVB63-68">
          <mxGeometry x="192.25" y="211" as="geometry">
            <mxPoint x="120" y="-88.18" as="sourcePoint" />
            <mxPoint x="1181.0000000000002" y="-88.18000000000006" as="targetPoint" />
          </mxGeometry>
        </mxCell>
        <mxCell id="Qrs4UdfkYSaOgJ5aVB63-68" value="" style="verticalLabelPosition=bottom;verticalAlign=top;html=1;strokeWidth=4;shape=mxgraph.flowchart.on-page_reference;plain-purple;strokeColor=#000000;fillColor=#f8cecc;gradientColor=none;fontSize=20;" vertex="1" parent="1">
          <mxGeometry x="1081" y="-102.75" width="30" height="30" as="geometry" />
        </mxCell>
        <mxCell id="Qrs4UdfkYSaOgJ5aVB63-174" value="&lt;div style=&quot;text-align: center;&quot;&gt;&lt;span style=&quot;background-color: transparent; color: light-dark(rgb(0, 0, 0), rgb(237, 237, 237));&quot;&gt;&lt;font&gt;按需合并&lt;/font&gt;&lt;/span&gt;&lt;/div&gt;" style="text;html=1;strokeColor=none;fillColor=none;align=left;verticalAlign=middle;whiteSpace=wrap;overflow=hidden;fontSize=20;fontStyle=0;fontColor=#000000;" vertex="1" parent="1">
          <mxGeometry x="1139" y="60" width="90" height="30" as="geometry" />
        </mxCell>
      </root>
    </mxGraphModel>
  </diagram>
</mxfile>
